<svg viewBox="0 0 620 295" xmlns="http://www.w3.org/2000/svg" role="img" aria-label="Nested ticks across four layers. The Policy tick spans the full width; within it sit four Orchestration runs; within each run sit three Agent steps; and within those, dense rows of Model calls.">
  <style>
    .ink             { color: #1a1810; }
    .muted           { color: #5d553f; }
    .blueprint       { color: #1f4f7a; }
    .blueprint-tint  { color: rgba(31, 79, 122, 0.07); }
    .oxblood         { color: #8b1f2c; }
    .oxblood-tint    { color: rgba(139, 31, 44, 0.06); }
    .sage            { color: #4f6b3f; }
    .sage-tint       { color: rgba(79, 107, 63, 0.08); }
    @media (prefers-color-scheme: dark) {
      .ink             { color: #ede2c4; }
      .muted           { color: #a89c7d; }
      .blueprint       { color: #88c0e8; }
      .blueprint-tint  { color: rgba(136, 192, 232, 0.10); }
      .oxblood         { color: #e09098; }
      .oxblood-tint    { color: rgba(224, 144, 152, 0.10); }
      .sage            { color: #b1c98c; }
      .sage-tint       { color: rgba(177, 201, 140, 0.10); }
    }
  </style>

  <!-- Layer labels (italic) -->
  <g class="oxblood" stroke="none" fill="currentColor">
    <text x="20" y="51" font-family="Fraunces, serif" font-size="14" font-style="italic">Policy</text>
  </g>
  <g class="blueprint" stroke="none" fill="currentColor">
    <text x="20" y="111" font-family="Fraunces, serif" font-size="14" font-style="italic">Orchestration</text>
  </g>
  <g class="sage" stroke="none" fill="currentColor">
    <text x="20" y="171" font-family="Fraunces, serif" font-size="14" font-style="italic">Agent</text>
  </g>
  <g class="ink" stroke="none" fill="currentColor">
    <text x="20" y="231" font-family="Fraunces, serif" font-size="14" font-style="italic">Model</text>
  </g>

  <!-- Layer sublabels (muted mono) -->
  <g class="muted" stroke="none" fill="currentColor" font-family="JetBrains Mono, monospace" font-size="9">
    <text x="20" y="65">MPLv2</text>
    <text x="20" y="125">LangGraph</text>
    <text x="20" y="185">LangChain</text>
    <text x="20" y="245">LLM</text>
  </g>

  <!-- Policy: one tick, full width -->
  <g class="oxblood-tint" stroke="none" fill="currentColor">
    <rect x="140" y="34" width="440" height="34" rx="4"/>
  </g>
  <g class="oxblood" stroke="currentColor" fill="currentColor">
    <rect x="140" y="34" width="440" height="34" rx="4" stroke-width="1.5" fill="none"/>
    <text x="360" y="55" font-family="JetBrains Mono, monospace" font-size="10" text-anchor="middle" letter-spacing="0.18em" stroke="none">ONE TICK</text>
  </g>

  <!-- Orchestration: 4 runs -->
  <g class="blueprint-tint" stroke="none" fill="currentColor">
    <rect x="140" y="94" width="106" height="34" rx="3"/>
    <rect x="250" y="94" width="106" height="34" rx="3"/>
    <rect x="360" y="94" width="106" height="34" rx="3"/>
    <rect x="470" y="94" width="106" height="34" rx="3"/>
  </g>
  <g class="blueprint" stroke="currentColor" fill="currentColor">
    <rect x="140" y="94" width="106" height="34" rx="3" stroke-width="1.3" fill="none"/>
    <rect x="250" y="94" width="106" height="34" rx="3" stroke-width="1.3" fill="none"/>
    <rect x="360" y="94" width="106" height="34" rx="3" stroke-width="1.3" fill="none"/>
    <rect x="470" y="94" width="106" height="34" rx="3" stroke-width="1.3" fill="none"/>
    <text x="193" y="115" font-family="JetBrains Mono, monospace" font-size="10" text-anchor="middle" stroke="none">run</text>
    <text x="303" y="115" font-family="JetBrains Mono, monospace" font-size="10" text-anchor="middle" stroke="none">run</text>
    <text x="413" y="115" font-family="JetBrains Mono, monospace" font-size="10" text-anchor="middle" stroke="none">run</text>
    <text x="523" y="115" font-family="JetBrains Mono, monospace" font-size="10" text-anchor="middle" stroke="none">run</text>
  </g>

  <!-- Agent: 12 steps -->
  <g class="sage-tint" stroke="none" fill="currentColor">
    <rect x="140" y="154" width="32" height="34" rx="2"/>
    <rect x="175" y="154" width="32" height="34" rx="2"/>
    <rect x="210" y="154" width="32" height="34" rx="2"/>
    <rect x="250" y="154" width="32" height="34" rx="2"/>
    <rect x="285" y="154" width="32" height="34" rx="2"/>
    <rect x="320" y="154" width="32" height="34" rx="2"/>
    <rect x="360" y="154" width="32" height="34" rx="2"/>
    <rect x="395" y="154" width="32" height="34" rx="2"/>
    <rect x="430" y="154" width="32" height="34" rx="2"/>
    <rect x="470" y="154" width="32" height="34" rx="2"/>
    <rect x="505" y="154" width="32" height="34" rx="2"/>
    <rect x="540" y="154" width="32" height="34" rx="2"/>
  </g>
  <g class="sage" stroke="currentColor" fill="none">
    <rect x="140" y="154" width="32" height="34" rx="2" stroke-width="1.1"/>
    <rect x="175" y="154" width="32" height="34" rx="2" stroke-width="1.1"/>
    <rect x="210" y="154" width="32" height="34" rx="2" stroke-width="1.1"/>
    <rect x="250" y="154" width="32" height="34" rx="2" stroke-width="1.1"/>
    <rect x="285" y="154" width="32" height="34" rx="2" stroke-width="1.1"/>
    <rect x="320" y="154" width="32" height="34" rx="2" stroke-width="1.1"/>
    <rect x="360" y="154" width="32" height="34" rx="2" stroke-width="1.1"/>
    <rect x="395" y="154" width="32" height="34" rx="2" stroke-width="1.1"/>
    <rect x="430" y="154" width="32" height="34" rx="2" stroke-width="1.1"/>
    <rect x="470" y="154" width="32" height="34" rx="2" stroke-width="1.1"/>
    <rect x="505" y="154" width="32" height="34" rx="2" stroke-width="1.1"/>
    <rect x="540" y="154" width="32" height="34" rx="2" stroke-width="1.1"/>
  </g>

  <!-- Model: many call tick marks -->
  <g class="ink" stroke="currentColor" fill="none">
    <line x1="144" y1="214" x2="144" y2="248" stroke-width="1.1"/>
    <line x1="156" y1="214" x2="156" y2="248" stroke-width="1.1"/>
    <line x1="168" y1="214" x2="168" y2="248" stroke-width="1.1"/>
    <line x1="180" y1="214" x2="180" y2="248" stroke-width="1.1"/>
    <line x1="192" y1="214" x2="192" y2="248" stroke-width="1.1"/>
    <line x1="204" y1="214" x2="204" y2="248" stroke-width="1.1"/>
    <line x1="216" y1="214" x2="216" y2="248" stroke-width="1.1"/>
    <line x1="228" y1="214" x2="228" y2="248" stroke-width="1.1"/>
    <line x1="240" y1="214" x2="240" y2="248" stroke-width="1.1"/>
    <line x1="254" y1="214" x2="254" y2="248" stroke-width="1.1"/>
    <line x1="266" y1="214" x2="266" y2="248" stroke-width="1.1"/>
    <line x1="278" y1="214" x2="278" y2="248" stroke-width="1.1"/>
    <line x1="290" y1="214" x2="290" y2="248" stroke-width="1.1"/>
    <line x1="302" y1="214" x2="302" y2="248" stroke-width="1.1"/>
    <line x1="314" y1="214" x2="314" y2="248" stroke-width="1.1"/>
    <line x1="326" y1="214" x2="326" y2="248" stroke-width="1.1"/>
    <line x1="338" y1="214" x2="338" y2="248" stroke-width="1.1"/>
    <line x1="350" y1="214" x2="350" y2="248" stroke-width="1.1"/>
    <line x1="364" y1="214" x2="364" y2="248" stroke-width="1.1"/>
    <line x1="376" y1="214" x2="376" y2="248" stroke-width="1.1"/>
    <line x1="388" y1="214" x2="388" y2="248" stroke-width="1.1"/>
    <line x1="400" y1="214" x2="400" y2="248" stroke-width="1.1"/>
    <line x1="412" y1="214" x2="412" y2="248" stroke-width="1.1"/>
    <line x1="424" y1="214" x2="424" y2="248" stroke-width="1.1"/>
    <line x1="436" y1="214" x2="436" y2="248" stroke-width="1.1"/>
    <line x1="448" y1="214" x2="448" y2="248" stroke-width="1.1"/>
    <line x1="460" y1="214" x2="460" y2="248" stroke-width="1.1"/>
    <line x1="474" y1="214" x2="474" y2="248" stroke-width="1.1"/>
    <line x1="486" y1="214" x2="486" y2="248" stroke-width="1.1"/>
    <line x1="498" y1="214" x2="498" y2="248" stroke-width="1.1"/>
    <line x1="510" y1="214" x2="510" y2="248" stroke-width="1.1"/>
    <line x1="522" y1="214" x2="522" y2="248" stroke-width="1.1"/>
    <line x1="534" y1="214" x2="534" y2="248" stroke-width="1.1"/>
    <line x1="546" y1="214" x2="546" y2="248" stroke-width="1.1"/>
    <line x1="558" y1="214" x2="558" y2="248" stroke-width="1.1"/>
    <line x1="570" y1="214" x2="570" y2="248" stroke-width="1.1"/>
  </g>

  <!-- Time axis -->
  <g class="muted" stroke="currentColor" fill="currentColor">
    <line x1="140" y1="268" x2="580" y2="268" stroke-width="0.8" fill="none"/>
    <text x="360" y="284" font-family="JetBrains Mono, monospace" font-size="9" text-anchor="middle" letter-spacing="0.16em" stroke="none">TIME &#8594;</text>
  </g>
</svg>
